<svg width="44" height="44" viewBox="0 0 44 44" fill="none" xmlns="http://www.w3.org/2000/svg">
<path d="M1.20733 0.0692521C1.41992 0.00639493 1.64281 -0.0139569 1.86327 0.00935943C2.08373 0.0326757 2.29744 0.0992029 2.49218 0.20514C2.68692 0.311078 2.85888 0.454349 2.99823 0.626767C3.13758 0.799185 3.2416 0.997372 3.30433 1.21L4.54183 5.40175H37.5156C41.6556 5.40175 44.8168 9.265 43.6243 13.2993L39.9006 25.8993C39.1086 28.5835 36.5908 30.3768 33.7918 30.3768H13.1908C10.3918 30.3768 7.87632 28.5835 7.08207 25.8993L0.068825 2.16625C-0.0575239 1.7375 -0.00860739 1.27614 0.204839 0.883412C0.418285 0.490688 0.778822 0.19644 1.20733 0.0692521ZM8.99908 38.8143C8.99908 37.4716 9.53244 36.1839 10.4818 35.2345C11.4313 34.2851 12.7189 33.7518 14.0616 33.7518C15.4042 33.7518 16.6919 34.2851 17.6413 35.2345C18.5907 36.1839 19.1241 37.4716 19.1241 38.8143C19.1241 40.1569 18.5907 41.4446 17.6413 42.394C16.6919 43.3434 15.4042 43.8768 14.0616 43.8768C12.7189 43.8768 11.4313 43.3434 10.4818 42.394C9.53244 41.4446 8.99908 40.1569 8.99908 38.8143ZM26.9991 38.8143C26.9991 38.1494 27.13 37.4911 27.3844 36.8769C27.6389 36.2627 28.0118 35.7046 28.4818 35.2345C28.9519 34.7644 29.51 34.3915 30.1242 34.1371C30.7384 33.8827 31.3968 33.7518 32.0616 33.7518C32.7264 33.7518 33.3847 33.8827 33.9989 34.1371C34.6131 34.3915 35.1712 34.7644 35.6413 35.2345C36.1114 35.7046 36.4843 36.2627 36.7387 36.8769C36.9931 37.4911 37.1241 38.1494 37.1241 38.8143C37.1241 40.1569 36.5907 41.4446 35.6413 42.394C34.6919 43.3434 33.4042 43.8768 32.0616 43.8768C30.7189 43.8768 29.4313 43.3434 28.4818 42.394C27.5324 41.4446 26.9991 40.1569 26.9991 38.8143Z" fill="#53AABB"/>
</svg>
