<svg width="18" height="18" viewBox="0 0 18 18" fill="none" xmlns="http://www.w3.org/2000/svg">
<g clip-path="url(#clip0_87_1123)">
<path d="M9 1C7.41775 1 5.87103 1.46919 4.55544 2.34824C3.23985 3.22729 2.21447 4.47672 1.60897 5.93853C1.00347 7.40034 0.84504 9.00887 1.15372 10.5607C1.4624 12.1126 2.22433 13.538 3.34315 14.6569C4.46197 15.7757 5.88743 16.5376 7.43928 16.8463C8.99113 17.155 10.5997 16.9965 12.0615 16.391C13.5233 15.7855 14.7727 14.7602 15.6518 13.4446C16.5308 12.129 17 10.5823 17 9C17 6.87827 16.1571 4.84344 14.6569 3.34315C13.1566 1.84285 11.1217 1 9 1ZM13 12.05C13.1326 12.1826 13.2071 12.3625 13.2071 12.55C13.2071 12.7375 13.1326 12.9174 13 13.05C12.8674 13.1826 12.6875 13.2571 12.5 13.2571C12.3125 13.2571 12.1326 13.1826 12 13.05L9 10.05L6 13.06C5.93434 13.1257 5.85639 13.1777 5.7706 13.2133C5.68481 13.2488 5.59286 13.2671 5.5 13.2671C5.40715 13.2671 5.3152 13.2488 5.22941 13.2133C5.14362 13.1777 5.06566 13.1257 5 13.06C4.93434 12.9943 4.88226 12.9164 4.84672 12.8306C4.81119 12.7448 4.7929 12.6529 4.7929 12.56C4.7929 12.4671 4.81119 12.3752 4.84672 12.2894C4.88226 12.2036 4.93434 12.1257 5 12.06L8 9.04L4.915 5.93C4.7824 5.79739 4.7079 5.61754 4.7079 5.43C4.7079 5.24246 4.7824 5.06261 4.915 4.93C5.04761 4.79739 5.22747 4.72289 5.415 4.72289C5.60254 4.72289 5.7824 4.79739 5.915 4.93L9 8.05L12.085 4.965C12.1507 4.89934 12.2286 4.84725 12.3144 4.81172C12.4002 4.77618 12.4921 4.75789 12.585 4.75789C12.6779 4.75789 12.7698 4.77618 12.8556 4.81172C12.9414 4.84725 13.0193 4.89934 13.085 4.965C13.1507 5.03066 13.2027 5.10861 13.2383 5.1944C13.2738 5.28019 13.2921 5.37214 13.2921 5.465C13.2921 5.55786 13.2738 5.64981 13.2383 5.7356C13.2027 5.82139 13.1507 5.89934 13.085 5.965L10 9.04L13 12.05Z" fill="#C41E3A"/>
</g>
<defs>
<clipPath id="clip0_87_1123">
<rect width="18" height="18" fill="white"/>
</clipPath>
</defs>
</svg>
