<svg width="36" height="36" viewBox="0 0 36 36" fill="none" xmlns="http://www.w3.org/2000/svg">
<path d="M12.0275 17.7245C12.7756 17.7245 13.5165 17.5771 14.2077 17.2908C14.8989 17.0045 15.527 16.5849 16.056 16.0558C16.585 15.5268 17.0047 14.8987 17.291 14.2075C17.5773 13.5163 17.7246 12.7755 17.7246 12.0273C17.7246 11.2792 17.5773 10.5383 17.291 9.84712C17.0047 9.15591 16.585 8.52786 16.056 7.99883C15.527 7.4698 14.8989 7.05015 14.2077 6.76384C13.5165 6.47753 12.7756 6.33017 12.0275 6.33017C10.5165 6.33017 9.06741 6.9304 7.99899 7.99883C6.93057 9.06725 6.33033 10.5163 6.33033 12.0273C6.33033 13.5383 6.93057 14.9874 7.99899 16.0558C9.06741 17.1242 10.5165 17.7245 12.0275 17.7245ZM21.6494 27.3704C22.6153 27.6679 23.8193 27.8528 25.3209 27.8528C32.9171 27.8528 32.9171 23.1051 32.9171 23.1051C32.9171 22.3496 32.6169 21.6251 32.0827 21.0909C31.5485 20.5567 30.824 20.2566 30.0685 20.2566H21.6418C22.3776 21.0221 22.7878 22.0433 22.7863 23.1051V23.8078L22.7825 23.9129C22.7557 24.3357 22.6905 24.7552 22.5875 25.1662C22.3916 25.9448 22.0755 26.688 21.6506 27.3691M29.752 13.2934C29.752 13.8753 29.6374 14.4515 29.4147 14.9891C29.192 15.5267 28.8656 16.0152 28.4541 16.4266C28.0427 16.8381 27.5542 17.1645 27.0166 17.3872C26.479 17.6099 25.9028 17.7245 25.3209 17.7245C24.739 17.7245 24.1627 17.6099 23.6251 17.3872C23.0875 17.1645 22.599 16.8381 22.1876 16.4266C21.7761 16.0152 21.4497 15.5267 21.227 14.9891C21.0043 14.4515 20.8897 13.8753 20.8897 13.2934C20.8897 12.1182 21.3566 10.9911 22.1876 10.1601C23.0186 9.32909 24.1456 8.86224 25.3209 8.86224C26.4961 8.86224 27.6231 9.32909 28.4541 10.1601C29.2851 10.9911 29.752 12.1182 29.752 13.2934ZM2.53223 23.1051C2.53223 22.3496 2.83234 21.6251 3.36656 21.0909C3.90077 20.5567 4.62532 20.2566 5.3808 20.2566H18.6742C19.4297 20.2566 20.1542 20.5567 20.6884 21.0909C21.2226 21.6251 21.5227 22.3496 21.5227 23.1051V23.7381C21.5227 23.7381 21.5227 30.3848 12.0275 30.3848C2.53223 30.3848 2.53223 23.7381 2.53223 23.7381V23.1051Z" fill="white"/>
</svg>
