<svg width="92" height="92" viewBox="0 0 92 92" fill="none" xmlns="http://www.w3.org/2000/svg">
<rect width="92" height="92" rx="46" fill="#53AABB"/>
<g clip-path="url(#clip0_84_358)">
<path d="M46.9566 65H44.0404C43.2669 65 42.5251 64.6921 41.9781 64.1438C41.4312 63.5956 41.124 62.8521 41.124 62.0769L41.1285 54.2375C41.1286 54.1734 41.1118 54.1104 41.0799 54.0547C41.0479 53.9991 41.0019 53.953 40.9465 53.9208C40.8911 53.8887 40.8282 53.8717 40.7641 53.8717C40.7001 53.8717 40.6372 53.8885 40.5817 53.9207L33.8067 57.854C33.1478 58.2353 32.3648 58.3386 31.6299 58.1413C30.895 57.9438 30.2684 57.4621 29.8879 56.8016L28.3842 54.1855L28.3787 54.1764C28.0085 53.5163 27.9114 52.737 28.1084 52.0058C28.3054 51.2747 28.7808 50.6503 29.4322 50.2668L36.2318 46.316C36.2871 46.284 36.3329 46.2378 36.3648 46.1824C36.3967 46.1269 36.4134 46.064 36.4134 46C36.4134 45.936 36.3967 45.8731 36.3648 45.8176C36.3329 45.7622 36.2871 45.716 36.2318 45.6839L29.4386 41.7368C29.1115 41.5489 28.8247 41.298 28.5946 40.9986C28.3646 40.6992 28.1958 40.3571 28.098 39.9922C28.0002 39.6272 27.9753 39.2464 28.0247 38.8718C28.0741 38.4971 28.1969 38.1359 28.386 37.809L29.8843 35.2011C30.0736 34.8713 30.3263 34.5826 30.6277 34.3515C30.9292 34.1203 31.2734 33.9515 31.6404 33.8546C32.0033 33.757 32.3818 33.7326 32.7542 33.7828C33.1265 33.833 33.4852 33.9567 33.8094 34.1469L40.5817 38.0748C40.6372 38.1069 40.7001 38.1238 40.7641 38.1238C40.8282 38.1237 40.8911 38.1068 40.9465 38.0747C41.0019 38.0425 41.0479 37.9963 41.0799 37.9407C41.1118 37.8851 41.1286 37.822 41.1285 37.7578L41.124 29.9231C41.124 29.1478 41.4312 28.4043 41.9781 27.8561C42.5251 27.308 43.2669 27 44.0404 27H46.9566C47.7301 27 48.4718 27.308 49.0188 27.8561C49.5657 28.4043 49.873 29.1478 49.873 29.9231V37.7533C49.8728 37.8175 49.8896 37.8805 49.9215 37.9362C49.9536 37.9918 49.9995 38.038 50.055 38.0701C50.1104 38.1022 50.1734 38.1192 50.2374 38.1192C50.3014 38.1192 50.3643 38.1023 50.4198 38.0702L57.1948 34.1369C57.8538 33.7563 58.6367 33.6534 59.3712 33.8507C60.1059 34.048 60.7326 34.5294 61.1136 35.1892L62.6165 37.8053L62.6219 37.8136C62.9964 38.4744 63.0949 39.2568 62.8963 39.9902C62.6975 40.7236 62.2176 41.3485 61.5611 41.7287L54.7687 45.6748C54.7135 45.707 54.6677 45.753 54.6357 45.8085C54.6039 45.8639 54.5872 45.9269 54.5872 45.9908C54.5872 46.0548 54.6039 46.1178 54.6357 46.1732C54.6677 46.2287 54.7135 46.2748 54.7687 46.3069L61.5611 50.2531C61.8882 50.441 62.1749 50.692 62.405 50.9913C62.6351 51.2908 62.804 51.6328 62.9019 51.9977C62.9997 52.3627 63.0246 52.7434 62.9754 53.118C62.9261 53.4927 62.8036 53.8539 62.6146 54.181L61.1163 56.7889C60.927 57.1187 60.6743 57.4073 60.3728 57.6385C60.0714 57.8696 59.7272 58.0385 59.3601 58.1353C58.9973 58.2329 58.6187 58.2573 58.2464 58.2072C57.8741 58.1569 57.5154 58.0333 57.1912 57.843L50.4188 53.9151C50.3634 53.8831 50.3007 53.8661 50.2367 53.8661C50.1726 53.8661 50.1099 53.883 50.0545 53.9151C49.9991 53.9471 49.953 53.9932 49.9211 54.0487C49.889 54.1041 49.8721 54.1671 49.8721 54.2312L49.873 62.0769C49.873 62.8521 49.5657 63.5956 49.0188 64.1438C48.4718 64.6921 47.7301 65 46.9566 65Z" fill="white"/>
</g>
<defs>
<clipPath id="clip0_84_358">
<rect width="35" height="38" fill="white" transform="translate(28 27)"/>
</clipPath>
</defs>
</svg>
