<svg width="24" height="26" viewBox="0 0 24 26" fill="none" xmlns="http://www.w3.org/2000/svg">
<path d="M12.9988 26H10.9991C10.4687 26 9.96004 25.7893 9.58501 25.4142C9.20998 25.0391 8.99929 24.5304 8.99929 24L9.00242 18.6362C9.00248 18.5923 8.99098 18.5492 8.96906 18.5111C8.94715 18.4731 8.9156 18.4415 8.87759 18.4195C8.83958 18.3975 8.79645 18.3859 8.75254 18.3859C8.70863 18.3859 8.66549 18.3974 8.62746 18.4194L3.98175 21.1106C3.52993 21.3715 2.993 21.4422 2.48907 21.3072C1.98513 21.1721 1.55546 20.8425 1.29456 20.3906L0.263426 18.6006L0.259676 18.5944C0.00580333 18.1427 -0.0607411 17.6095 0.0743478 17.1092C0.209437 16.609 0.535373 16.1818 0.982093 15.9194L5.64468 13.2162C5.68256 13.1943 5.714 13.1627 5.73586 13.1248C5.75772 13.0868 5.76922 13.0438 5.76922 13C5.76922 12.9562 5.75772 12.9132 5.73586 12.8752C5.714 12.8373 5.68256 12.8057 5.64468 12.7837L0.986467 10.0831C0.762181 9.9545 0.565513 9.78283 0.407756 9.57797C0.25 9.37311 0.134264 9.1391 0.0671951 8.88937C0.000126399 8.63965 -0.0169535 8.37914 0.0169361 8.1228C0.0508257 7.86645 0.135018 7.61933 0.264676 7.39563L1.29206 5.61125C1.42188 5.38566 1.59516 5.18808 1.80187 5.02994C2.00858 4.87181 2.24461 4.75626 2.49629 4.69C2.7451 4.62322 3.00469 4.60651 3.26001 4.64084C3.51532 4.67518 3.76128 4.75987 3.98362 4.89L8.62746 7.5775C8.66549 7.59946 8.70863 7.61101 8.75254 7.61099C8.79645 7.61098 8.83958 7.59939 8.87759 7.57741C8.9156 7.55542 8.94715 7.52381 8.96906 7.48575C8.99098 7.4477 9.00248 7.40454 9.00242 7.36063L8.99929 2C8.99929 1.46957 9.20998 0.960859 9.58501 0.585786C9.96004 0.210714 10.4687 0 10.9991 0H12.9988C13.5292 0 14.0378 0.210714 14.4129 0.585786C14.7879 0.960859 14.9986 1.46957 14.9986 2V7.3575C14.9985 7.40142 15.01 7.44457 15.0319 7.48263C15.0539 7.52068 15.0854 7.5523 15.1234 7.57428C15.1614 7.59627 15.2046 7.60785 15.2485 7.60787C15.2924 7.60789 15.3355 7.59633 15.3736 7.57438L20.0193 4.88312C20.4712 4.62276 21.008 4.55234 21.5117 4.68733C22.0155 4.82231 22.4452 5.15167 22.7065 5.60312L23.737 7.39312L23.7407 7.39875C23.9975 7.85089 24.0651 8.38621 23.9289 8.88802C23.7926 9.38982 23.4635 9.81739 23.0133 10.0775L18.3557 12.7775C18.3178 12.7995 18.2864 12.831 18.2645 12.869C18.2427 12.9069 18.2312 12.95 18.2312 12.9937C18.2312 13.0375 18.2427 13.0806 18.2645 13.1185C18.2864 13.1565 18.3178 13.188 18.3557 13.21L23.0133 15.91C23.2376 16.0386 23.4342 16.2103 23.592 16.4151C23.7498 16.62 23.8656 16.854 23.9327 17.1037C23.9998 17.3534 24.0169 17.6139 23.9831 17.8702C23.9493 18.1266 23.8653 18.3737 23.7357 18.5975L22.7083 20.3819C22.5785 20.6075 22.4052 20.805 22.1985 20.9632C21.9918 21.1213 21.7558 21.2369 21.5041 21.3031C21.2553 21.3699 20.9957 21.3866 20.7404 21.3523C20.4851 21.3179 20.2391 21.2333 20.0168 21.1031L15.3729 18.4156C15.3349 18.3937 15.2919 18.3821 15.248 18.3821C15.2041 18.3821 15.1611 18.3936 15.1231 18.4156C15.0851 18.4375 15.0535 18.469 15.0316 18.507C15.0096 18.5449 14.998 18.588 14.998 18.6319L14.9986 24C14.9986 24.5304 14.7879 25.0391 14.4129 25.4142C14.0378 25.7893 13.5292 26 12.9988 26Z" fill="#53AABB"/>
</svg>
