<svg width="31" height="30" viewBox="0 0 31 30" fill="none" xmlns="http://www.w3.org/2000/svg">
<path d="M11.8408 27.4401L11.3288 23.4488C11.0514 23.3449 10.7903 23.2202 10.5454 23.0747C10.3004 22.9291 10.0602 22.7732 9.82468 22.6069L6.01637 24.166L2.49609 18.2414L5.79236 15.8093C5.77102 15.6637 5.76035 15.5236 5.76035 15.3889V14.547C5.76035 14.4115 5.77102 14.2709 5.79236 14.1254L2.49609 11.6932L6.01637 5.76866L9.82468 7.32776C10.0594 7.16145 10.3047 7.00554 10.5607 6.86003C10.8168 6.71451 11.0728 6.58978 11.3288 6.48584L11.8408 2.49455H18.8814L19.3934 6.48584C19.6708 6.58978 19.9324 6.71451 20.1781 6.86003C20.4239 7.00554 20.6637 7.16145 20.8976 7.32776L24.7059 5.76866L28.2261 11.6932L24.9299 14.1254C24.9512 14.2709 24.9619 14.4115 24.9619 14.547V15.3877C24.9619 15.5232 24.9405 15.6637 24.8979 15.8093L28.1941 18.2414L24.6739 24.166L20.8976 22.6069C20.6629 22.7732 20.4175 22.9291 20.1615 23.0747C19.9055 23.2202 19.6495 23.3449 19.3934 23.4488L18.8814 27.4401H11.8408ZM15.4251 19.3328C16.6626 19.3328 17.7186 18.9067 18.5934 18.0544C19.4681 17.2021 19.9055 16.173 19.9055 14.9673C19.9055 13.7616 19.4681 12.7326 18.5934 11.8803C17.7186 11.028 16.6626 10.6019 15.4251 10.6019C14.1664 10.6019 13.1047 11.028 12.2402 11.8803C11.3757 12.7326 10.9439 13.7616 10.9448 14.9673C10.9456 16.173 11.3779 17.2021 12.2415 18.0544C13.1052 18.9067 14.1664 19.3328 15.4251 19.3328Z" fill="white"/>
</svg>
