<svg width="31" height="30" viewBox="0 0 31 30" fill="none" xmlns="http://www.w3.org/2000/svg">
<path d="M11.5205 26.1929C10.1123 26.1929 8.90691 25.7043 7.90417 24.7273C6.90142 23.7503 6.40005 22.5757 6.40005 21.2037V11.0072C5.65332 10.737 5.04015 10.2851 4.56054 9.65144C4.08093 9.01783 3.8407 8.29524 3.83984 7.48367C3.83984 6.44427 4.21321 5.56078 4.95993 4.83321C5.70666 4.10563 6.6134 3.74184 7.68015 3.74184C8.7469 3.74184 9.65364 4.10563 10.4004 4.83321C11.1471 5.56078 11.5205 6.44427 11.5205 7.48367C11.5205 8.2944 11.2806 9.01699 10.801 9.65144C10.3214 10.2859 9.70783 10.7378 8.96025 11.0072V21.2037C8.96025 21.8897 9.21115 22.4772 9.71295 22.9661C10.2148 23.4551 10.8173 23.6991 11.5205 23.6983C12.2237 23.6975 12.8266 23.4534 13.3292 22.9661C13.8319 22.4789 14.0824 21.8914 14.0807 21.2037V8.73095C14.0807 7.35895 14.582 6.18442 15.5848 5.20739C16.5875 4.23035 17.793 3.74184 19.2011 3.74184C20.6092 3.74184 21.8146 4.23035 22.8174 5.20739C23.8201 6.18442 24.3215 7.35895 24.3215 8.73095V18.9275C25.0682 19.1977 25.6818 19.65 26.1623 20.2845C26.6427 20.9189 26.8825 21.6411 26.8817 22.451C26.8817 23.4904 26.5083 24.3739 25.7616 25.1015C25.0149 25.8291 24.1081 26.1929 23.0414 26.1929C21.9746 26.1929 21.0679 25.8291 20.3212 25.1015C19.5744 24.3739 19.2011 23.4904 19.2011 22.451C19.2011 21.6403 19.4413 20.9127 19.9218 20.2683C20.4022 19.6239 21.0154 19.1769 21.7613 18.9275V8.73095C21.7613 8.04495 21.5108 7.4579 21.0099 6.96979C20.5089 6.48169 19.906 6.23723 19.2011 6.23639C18.4962 6.23556 17.8937 6.48003 17.3936 6.96979C16.8935 7.45956 16.6426 8.04661 16.6409 8.73095V21.2037C16.6409 22.5757 16.1395 23.7503 15.1367 24.7273C14.134 25.7043 12.9286 26.1929 11.5205 26.1929Z" fill="white"/>
</svg>
