<svg width="32" height="30" viewBox="0 0 32 30" fill="none" xmlns="http://www.w3.org/2000/svg">
<path d="M5.25183 24.9456C4.52972 24.9456 3.91177 24.7015 3.39798 24.2134C2.88419 23.7253 2.62685 23.1379 2.62598 22.451V7.48368C2.62598 6.79767 2.88331 6.21062 3.39798 5.72252C3.91264 5.23442 4.53059 4.98995 5.25183 4.98912H26.2586C26.9807 4.98912 27.5991 5.23359 28.1138 5.72252C28.6285 6.21145 28.8854 6.79851 28.8845 7.48368V22.451C28.8845 23.137 28.6276 23.7245 28.1138 24.2134C27.6 24.7024 26.9816 24.9464 26.2586 24.9456H5.25183ZM15.7552 16.2146L26.2586 9.97824V7.48368L15.7552 13.7201L5.25183 7.48368V9.97824L15.7552 16.2146Z" fill="white"/>
</svg>
