<svg width="31" height="30" viewBox="0 0 31 30" fill="none" xmlns="http://www.w3.org/2000/svg">
<path d="M14.0815 21.2037H16.6417V13.7201H14.0815V21.2037ZM15.3616 11.2255C15.7243 11.2255 16.0285 11.1058 16.2743 10.8663C16.5201 10.6268 16.6425 10.3308 16.6417 9.97823C16.6408 9.62566 16.5179 9.32964 16.273 9.09016C16.0281 8.85069 15.7243 8.73095 15.3616 8.73095C14.9989 8.73095 14.6951 8.85069 14.4501 9.09016C14.2052 9.32964 14.0823 9.62566 14.0815 9.97823C14.0806 10.3308 14.2035 10.6272 14.4501 10.8675C14.6968 11.1078 15.0006 11.2272 15.3616 11.2255ZM15.3616 27.4401C13.5908 27.4401 11.9266 27.1125 10.3692 26.4573C8.81171 25.802 7.45694 24.9136 6.30485 23.7918C5.15276 22.6701 4.2409 21.3501 3.56927 19.8317C2.89764 18.3134 2.5614 16.6919 2.56055 14.9673C2.5597 13.2428 2.89594 11.6213 3.56927 10.103C4.2426 8.5846 5.15446 7.26456 6.30485 6.14284C7.45523 5.02112 8.81001 4.13265 10.3692 3.47741C11.9283 2.82217 13.5925 2.49455 15.3616 2.49455C17.1307 2.49455 18.7948 2.82217 20.354 3.47741C21.9131 4.13265 23.2679 5.02112 24.4183 6.14284C25.5687 7.26456 26.481 8.5846 27.1551 10.103C27.8293 11.6213 28.1651 13.2428 28.1626 14.9673C28.16 16.6919 27.8238 18.3134 27.1539 19.8317C26.4839 21.3501 25.5721 22.6701 24.4183 23.7918C23.2645 24.9136 21.9097 25.8025 20.354 26.4585C18.7982 27.1146 17.1341 27.4418 15.3616 27.4401Z" fill="white"/>
</svg>
