<svg width="30" height="30" viewBox="0 0 30 30" fill="none" xmlns="http://www.w3.org/2000/svg">
<path d="M14.9675 4.98912C16.2907 4.98912 17.5597 5.51476 18.4953 6.4504C19.431 7.38604 19.9566 8.65504 19.9566 9.97824C19.9566 11.3014 19.431 12.5704 18.4953 13.5061C17.5597 14.4417 16.2907 14.9674 14.9675 14.9674C13.6443 14.9674 12.3753 14.4417 11.4397 13.5061C10.504 12.5704 9.97837 11.3014 9.97837 9.97824C9.97837 8.65504 10.504 7.38604 11.4397 6.4504C12.3753 5.51476 13.6443 4.98912 14.9675 4.98912ZM14.9675 17.4619C20.4805 17.4619 24.9457 19.6945 24.9457 22.451V24.9456H4.98926V22.451C4.98926 19.6945 9.45452 17.4619 14.9675 17.4619Z" fill="#272727"/>
</svg>
