<svg width="31" height="30" viewBox="0 0 31 30" fill="none" xmlns="http://www.w3.org/2000/svg">
<path d="M15.3609 21.2037C16.0399 21.2037 16.6911 20.9409 17.1713 20.4731C17.6514 20.0053 17.9211 19.3708 17.9211 18.7092C17.9211 18.0476 17.6514 17.4131 17.1713 16.9453C16.6911 16.4774 16.0399 16.2146 15.3609 16.2146C14.6819 16.2146 14.0307 16.4774 13.5506 16.9453C13.0705 17.4131 12.8007 18.0476 12.8007 18.7092C12.8007 19.3708 13.0705 20.0053 13.5506 20.4731C14.0307 20.9409 14.6819 21.2037 15.3609 21.2037ZM23.0415 9.97824C23.7206 9.97824 24.3717 10.2411 24.8519 10.7089C25.332 11.1767 25.6017 11.8112 25.6017 12.4728V24.9456C25.6017 25.6072 25.332 26.2417 24.8519 26.7095C24.3717 27.1773 23.7206 27.4401 23.0415 27.4401H7.68032C7.00131 27.4401 6.35011 27.1773 5.86998 26.7095C5.38985 26.2417 5.12012 25.6072 5.12012 24.9456V12.4728C5.12012 11.8112 5.38985 11.1767 5.86998 10.7089C6.35011 10.2411 7.00131 9.97824 7.68032 9.97824H8.96042V7.48368C8.96042 5.82968 9.63476 4.24343 10.8351 3.07388C12.0354 1.90433 13.6634 1.24728 15.3609 1.24728C16.2015 1.24728 17.0338 1.40859 17.8103 1.722C18.5868 2.03541 19.2924 2.49478 19.8868 3.07388C20.4811 3.65298 20.9526 4.34048 21.2742 5.09711C21.5959 5.85375 21.7614 6.6647 21.7614 7.48368V9.97824H23.0415ZM15.3609 3.74184C14.3424 3.74184 13.3656 4.13607 12.6454 4.8378C11.9252 5.53953 11.5206 6.49128 11.5206 7.48368V9.97824H19.2012V7.48368C19.2012 6.49128 18.7966 5.53953 18.0764 4.8378C17.3562 4.13607 16.3794 3.74184 15.3609 3.74184Z" fill="white"/>
</svg>
