<svg width="54" height="54" viewBox="0 0 54 54" fill="none" xmlns="http://www.w3.org/2000/svg">
<path d="M6.27056 5.12998C6.48315 5.06712 6.70605 5.04677 6.92651 5.07009C7.14697 5.09341 7.36067 5.15993 7.55541 5.26587C7.75016 5.37181 7.92211 5.51508 8.06146 5.6875C8.20082 5.85992 8.30483 6.0581 8.36756 6.27073L9.60506 10.4625H42.5788C46.7188 10.4625 49.8801 14.3257 48.6876 18.36L44.9638 30.96C44.1718 33.6442 41.6541 35.4375 38.8551 35.4375H18.2541C15.4551 35.4375 12.9396 33.6442 12.1453 30.96L5.13206 7.22698C5.00571 6.79823 5.05463 6.33687 5.26807 5.94414C5.48152 5.55142 5.84205 5.25717 6.27056 5.12998ZM14.0623 43.875C14.0623 42.5323 14.5957 41.2447 15.5451 40.2953C16.4945 39.3459 17.7821 38.8125 19.1248 38.8125C20.4675 38.8125 21.7551 39.3459 22.7045 40.2953C23.6539 41.2447 24.1873 42.5323 24.1873 43.875C24.1873 45.2176 23.6539 46.5053 22.7045 47.4547C21.7551 48.4041 20.4675 48.9375 19.1248 48.9375C17.7821 48.9375 16.4945 48.4041 15.5451 47.4547C14.5957 46.5053 14.0623 45.2176 14.0623 43.875ZM32.0623 43.875C32.0623 43.2102 32.1933 42.5519 32.4477 41.9376C32.7021 41.3234 33.075 40.7654 33.5451 40.2953C34.0152 39.8252 34.5733 39.4523 35.1875 39.1978C35.8017 38.9434 36.46 38.8125 37.1248 38.8125C37.7896 38.8125 38.4479 38.9434 39.0621 39.1978C39.6764 39.4523 40.2344 39.8252 40.7045 40.2953C41.1746 40.7654 41.5475 41.3234 41.802 41.9376C42.0564 42.5519 42.1873 43.2102 42.1873 43.875C42.1873 45.2176 41.6539 46.5053 40.7045 47.4547C39.7551 48.4041 38.4675 48.9375 37.1248 48.9375C35.7821 48.9375 34.4945 48.4041 33.5451 47.4547C32.5957 46.5053 32.0623 45.2176 32.0623 43.875Z" fill="white"/>
</svg>
