<svg width="30" height="30" viewBox="0 0 30 30" fill="none" xmlns="http://www.w3.org/2000/svg">
<g clip-path="url(#clip0_84_396)">
<path fill-rule="evenodd" clip-rule="evenodd" d="M21.183 7.023C23.208 7.023 25.3545 8.1375 26.883 10.065C21.873 12.8415 22.6875 20.076 27.75 22.0095C27.0525 23.5695 26.7195 24.267 25.8225 25.6485C24.57 27.5745 22.8075 29.9745 20.619 29.9955C18.6765 30.0135 18.177 28.716 15.54 28.731C12.903 28.746 12.3525 30.018 10.41 30C8.22299 29.979 6.55049 27.813 5.29799 25.8855C1.79699 20.4975 1.43099 14.175 3.59099 10.815C5.12549 8.424 7.54498 7.0245 9.82199 7.0245C12.1395 7.0245 13.596 8.31 15.513 8.31C17.373 8.31 18.504 7.023 21.183 7.023ZM20.595 0C20.865 1.8225 20.124 3.6075 19.1505 4.8705C18.108 6.2235 16.3125 7.272 14.5755 7.218C14.2605 5.4735 15.0735 3.678 16.0605 2.4675C17.145 1.1325 19.005 0.111 20.595 0Z" fill="#383838"/>
</g>
<defs>
<clipPath id="clip0_84_396">
<rect width="30" height="30" fill="white"/>
</clipPath>
</defs>
</svg>
